Coordinates
version=1
nRows=18
nColumns=38
inDegrees=yes

Units are S.I. units (second, meters, Newtons, ...)
Angles are in degrees.

endheader
time	pelvis_tilt	pelvis_list	pelvis_rotation	pelvis_tx	pelvis_ty	pelvis_tz	hip_flexion_r	hip_adduction_r	hip_rotation_r	knee_angle_r	ankle_angle_r	subtalar_angle_r	mtp_angle_r	hip_flexion_l	hip_adduction_l	hip_rotation_l	knee_angle_l	ankle_angle_l	subtalar_angle_l	mtp_angle_l	lumbar_extension	lumbar_bending	lumbar_rotation	arm_flex_r	arm_add_r	arm_rot_r	elbow_flex_r	pro_sup_r	wrist_flex_r	wrist_dev_r	arm_flex_l	arm_add_l	arm_rot_l	elbow_flex_l	pro_sup_l	wrist_flex_l	wrist_dev_l
      1.95000000	     -9.58768254	      5.47833640	     -0.49897819	      0.10928989	      0.87398556	      2.63018099	      2.37949076	     -6.56137831	      6.20932833	    -46.33599801	    -24.79410135	     -0.00007612	      0.00000000	     28.73715294	      3.94088976	     -3.98334364	    -17.23965794	    -15.67129992	     -0.00002135	      0.00000000	     -4.30387278	     -5.34268029	     -0.32524006	     27.38703274	     -7.47061014	     17.85244661	     53.99664424	     95.99988900	     -0.00011324	     -0.00004702	    -38.78360453	    -15.37437095	     58.34852695	    107.48946543	  50260.92322978	     -0.00005430	     -0.00000279
      1.96000000	     -9.25980594	      5.97128435	     -0.35397868	      0.11014603	      0.86638732	      2.62842708	      3.65197027	     -6.95137418	      6.10173574	    -50.58254959	    -22.79372302	     -0.00008333	      0.00000000	     28.50317455	      4.93824368	     -2.77976790	    -20.70576239	     -9.61306112	     -0.00003295	      0.00000000	     -4.60350842	     -5.92930848	     -0.81713696	     26.81192792	     -7.38129291	     18.10380760	     53.56554819	     96.47815258	     -0.00011381	     -0.00004615	    -38.43366433	    -15.94591824	     58.59048553	    107.65641361	  50260.91872157	     -0.00005501	     -0.00000360
      1.97000000	     -8.55465876	      6.16921570	     -0.17436984	      0.11079588	      0.85907487	      2.62634432	      4.76416904	     -7.12526418	      5.89622767	    -54.94042212	    -13.90599267	     -0.00009130	      0.00000000	     28.17427384	      5.70405960	     -1.55130601	    -24.27091957	     -4.28753791	     -0.00004800	      0.00000000	     -5.37079248	     -6.08920714	     -1.34543694	     26.18604554	     -7.49987857	     18.33577088	     53.13679432	     96.28132717	     -0.00010814	     -0.00004434	    -37.88480770	    -16.55391420	     59.06494921	    107.83099886	  50260.91992255	     -0.00005696	     -0.00000293
      1.98000000	     -8.02836164	      6.63408697	      0.01930227	      0.11137300	      0.85078938	      2.62396487	      6.07995644	     -7.65001499	      5.70277975	    -59.10765791	     -9.93735085	     -0.00009354	      0.00000000	     28.16527106	      6.86912295	     -0.29221635	    -27.86034927	      0.64058987	     -0.00006099	      0.00000000	     -5.91974096	     -6.50171235	     -2.01530314	     25.37894221	     -7.70951127	     18.59929782	     52.78625160	     95.63284403	     -0.00010873	     -0.00004036	    -37.60071067	    -17.00182308	     59.19499048	    108.11657169	  50260.90539586	     -0.00005596	     -0.00000332
      1.99000000	     -7.28958507	      7.00419783	      0.25711032	      0.11155568	      0.84297551	      2.62128638	      7.29432009	     -8.22294877	      5.30169317	    -63.13761798	     -6.36094989	     -0.00009198	      0.00000000	     27.89677681	      7.99462034	      0.58292282	    -31.51610930	      5.21517016	     -0.00007795	      0.00000000	     -6.77319916	     -6.77635140	     -2.80359710	     24.45064685	     -7.96309144	     18.70489813	     52.43485982	     95.66620820	     -0.00010821	     -0.00003529	    -37.09303133	    -17.39898162	     59.57601666	    108.40243052	  50260.96968808	     -0.00005870	     -0.00000363
      2.00000000	     -6.36305182	      7.23950307	      0.38077030	      0.11128391	      0.83549540	      2.61901742	      8.48139493	     -8.75349651	      4.81654969	    -66.95456849	     -2.72611229	     -0.00008868	      0.00000000	     27.15449384	      8.90391234	      1.22537468	    -34.58497554	      9.40593545	     -0.00008696	      0.00000000	     -7.89789319	     -6.94889833	     -3.62219823	     23.52346227	     -8.39998370	     19.12316719	     52.18640336	     94.58890221	     -0.00010576	     -0.00003429	    -36.71373278	    -17.64135903	     59.57745829	    108.94350611	  50261.00408457	     -0.00006040	     -0.00000304
      2.01000000	     -5.60763422	      7.52249040	      0.50014862	      0.11025733	      0.82859254	      2.61705883	     10.03567519	     -9.40584818	      4.29717186	    -70.50572495	      0.56917813	     -0.00008058	      0.00000000	     26.38132083	      9.86892401	      1.95602204	    -37.18549124	     12.74461050	     -0.00009914	      0.00000000	     -8.97033892	     -7.21488184	     -4.64194532	     22.57405890	     -8.77471651	     19.54308752	     51.90303866	     94.42408486	     -0.00010507	     -0.00002510	    -36.70570841	    -17.90053442	     59.15682492	    109.41709435	  50260.95954248	     -0.00006241	     -0.00000404
      2.02000000	     -5.58473224	      8.09645691	      0.57238483	      0.10898415	      0.82217685	      2.61582790	     12.51758766	    -10.28670264	      4.07130976	    -73.84334017	      3.63402366	     -0.00008044	      0.00000000	     26.13796928	     10.88634893	      2.21772346	    -39.27861194	     15.20924647	     -0.00010368	      0.00000000	     -9.23532107	     -7.87407867	     -5.50494206	     21.21107967	     -9.05137320	     19.44552782	     51.65998353	     94.64003959	     -0.00010406	     -0.00002426	    -36.60212688	    -18.35263045	     58.85610692	    110.02086900	  50260.91285082	     -0.00006466	     -0.00000439
      2.03000000	     -6.33298982	      8.76335827	      0.56982559	      0.10829951	      0.81709348	      2.61583878	     15.80798801	    -10.99730305	      4.25688764	    -76.52011796	      6.32812357	     -0.00008240	      0.00000000	     26.14864271	     11.76622847	      2.38244943	    -40.37611920	     17.09428371	     -0.00010988	      0.00000000	     -8.57076280	     -8.74329143	     -6.25551316	     19.52653461	     -9.12551622	     19.25828508	     51.07788712	     95.09947907	     -0.00010386	     -0.00001959	    -36.77384816	    -18.96465714	     58.44884097	    110.28970572	  50260.88747198	     -0.00006548	     -0.00000079
      2.04000000	     -6.75946509	      9.17136426	      0.18485612	      0.10843588	      0.81401961	      2.61714365	     18.68295825	    -11.10995019	      4.74989425	    -78.43867730	      8.33790127	     -0.00009215	      0.00000000	     25.45614741	     11.95966554	      1.88019626	    -40.77958211	     18.61830797	     -0.00011015	      0.00000000	     -8.10411753	     -9.39492950	     -6.68125296	     17.66748657	     -9.16946709	     19.04542741	     50.39046814	     95.52144606	     -0.00010270	     -0.00001822	    -36.97428157	    -19.63741608	     58.22836153	    110.36639076	  50260.88206602	     -0.00006647	     -0.00000487
      2.05000000	     -6.67284810	      9.38369869	     -0.35766552	      0.10913576	      0.81312755	      2.61870660	     20.85418299	    -10.94617982	      5.18373323	    -79.57989788	      9.72208092	     -0.00010831	      0.00000000	     23.79465244	     12.02913709	      1.86884919	    -40.76766714	     19.83455678	     -0.00010239	      0.00000000	     -8.12555011	     -9.76657675	     -7.05645451	     15.69129877	     -9.30311949	     18.68998599	     49.89338847	     96.48563285	     -0.00010069	     -0.00001869	    -37.22757805	    -20.25099884	     58.05092193	    110.14317428	  50261.02683341	     -0.00006638	     -0.00000290
      2.06000000	     -6.06601798	      9.21739286	     -0.86831874	      0.11085869	      0.81449473	      2.62020008	     22.11704288	    -10.47232429	      5.18618181	    -79.82924708	     11.07488286	     -0.00011963	      0.00000000	     21.12715390	     11.71154809	      1.85181892	    -39.93031620	     20.61682246	     -0.00009681	      0.00000000	     -8.59023281	     -9.68222678	     -7.52856202	     13.65271570	     -9.61794337	     18.53269448	     49.39713863	     96.12803661	     -0.00010030	     -0.00001740	    -37.43093025	    -20.78467342	     57.84736073	    109.64249763	  50261.05677882	     -0.00006642	     -0.00000291
      2.07000000	     -5.52156078	      9.12627349	     -1.68877175	      0.11224093	      0.81677506	      2.62202260	     23.58650121	     -9.99450460	      5.39709916	    -79.67517571	     12.35755507	     -0.00012749	      0.00000000	     18.29712903	     11.39869671	      1.55692442	    -38.55677534	     20.66070696	     -0.00009202	      0.00000000	     -8.95097037	     -9.66884297	     -7.73715557	     11.51627333	    -10.00956099	     18.19489122	     49.20372475	     95.00888102	     -0.00010258	     -0.00001769	    -37.82828958	    -21.30919307	     57.40552640	    108.95575234	  50261.09071940	     -0.00006892	     -0.00000327
      2.08000000	     -5.19517864	      8.87186475	     -2.61216494	      0.11352782	      0.81985024	      2.62399750	     25.21809333	     -9.30601107	      5.61735392	    -79.01344240	     13.19150083	     -0.00013620	      0.00000000	     15.63229456	     10.89709205	      1.13797620	    -37.01618782	     20.36089213	     -0.00009537	      0.00000000	     -9.12298565	     -9.45345286	     -7.60187551	      9.14170588	    -10.63846320	     17.62722154	     49.50288285	     92.61880165	     -0.00010193	     -0.00001960	    -38.02321483	    -21.68118528	     56.96512081	    107.43792577	  50260.98812500	     -0.00006775	     -0.00000164
      2.09000000	     -5.08895120	      8.49783649	     -3.54021182	      0.11486673	      0.82358708	      2.62600075	     26.89225855	     -8.47286432	      5.73893120	    -77.75384258	     13.92592479	     -0.00014499	      0.00000000	     13.08353071	     10.38840850	      0.95993640	    -35.20671926	     19.32615448	     -0.00009514	      0.00000000	     -9.09638680	     -9.02939217	     -7.44618417	      6.69627697	    -11.34871065	     17.09083369	     50.02197714	     89.73265862	     -0.00010226	     -0.00001491	    -38.44812784	    -21.85007179	     55.77757615	    105.40128999	  50260.91541919	     -0.00006523	     -0.00000242
      2.10000000	     -5.12524577	      7.98706965	     -4.44738218	      0.11614723	      0.82813057	      2.62805033	     28.50953659	     -7.53124742	      5.64280361	    -75.93098672	     14.53223892	     -0.00015644	      0.00000000	     10.65848475	      9.76929871	      0.78817650	    -33.32425592	     17.68724619	     -0.00009215	      0.00000000	     -8.97660984	     -8.42374887	     -7.16943593	      4.15399920	    -12.10383620	     16.15291180	     50.81489944	     87.61118822	     -0.00010138	     -0.00001523	    -38.63928451	    -22.16304233	     54.68385867	    102.98101674	  50260.83987599	     -0.00006333	     -0.00000305
      2.11000000	     -5.30090159	      7.37124632	     -5.40046445	      0.11765056	      0.83321366	      2.63041104	     29.98524641	     -6.44545367	      5.52073583	    -73.48169164	     15.16084635	     -0.00016339	      0.00000000	      8.42737709	      8.96333463	      0.43895891	    -31.48869717	     15.65006271	     -0.00009229	      0.00000000	     -8.70427454	     -7.66823093	     -6.67143687	      1.52281940	    -12.79446210	     14.86094127	     51.53373500	     87.18786969	     -0.00010689	     -0.00001807	    -38.89921049	    -22.54743555	     53.18565640	    100.53882242	  50260.81505807	     -0.00005963	     -0.00000291
      2.12000000	     -5.51532691	      6.68447505	     -6.23141848	      0.11934818	      0.83889525	      2.63253954	     31.17766206	     -5.39971191	      5.21445916	    -70.43699942	     15.30758519	     -0.00017113	      0.00000000	      6.25648432	      8.11127564	      0.07717975	    -29.63390068	     13.10924678	     -0.00009057	      0.00000000	     -8.46099695	     -6.77473759	     -6.20245194	     -1.11445925	    -13.42695786	     13.37330798	     52.32828841	     86.67139441	     -0.00011405	     -0.00001786	    -39.06420422	    -22.89360864	     51.94808094	     97.88463731	  50260.68366258	     -0.00005931	     -0.00000356
